<svg width="670" height="836" viewBox="0 0 670 836" fill="none" xmlns="http://www.w3.org/2000/svg">
  <g fill="#06583D">
    <path d="M500.025 59.75C500.025 91.65 474.175 117.5 442.275 117.5C410.375 117.5 384.515 91.65 384.515 59.75C384.515 27.85 410.385 2 442.285 2C474.185 2 500.035 27.85 500.035 59.75"/>
    <path d="M661.565 437.31C646.445 359.55 604.245 291.47 545.165 243.28C489.225 197.1 417.295 168.52 335.875 168.55C335.625 168.55 335.365 168.55 335.115 168.55C334.935 168.55 334.765 168.55 334.595 168.55C334.365 168.55 334.125 168.55 333.895 168.55C332.385 168.55 330.885 168.59 329.385 168.62C326.835 168.66 324.295 168.74 321.755 168.84C321.555 168.84 321.345 168.85 321.135 168.86C313.455 169.18 305.835 169.75 298.295 170.59C297.105 170.72 295.915 170.86 294.725 171C293.765 171.12 292.795 171.23 291.835 171.35C224.875 179.92 166.275 207.7 119.625 247.82C63.4249 295.68 23.3549 361.9 8.68485 437.21C-8.66515 522.43 6.88485 615.58 65.5949 696.9C133.615 791.12 238.505 835.91 342.155 833.64C343.085 833.62 344.005 833.6 344.925 833.57C346.815 833.51 348.705 833.44 350.595 833.35C351.995 833.29 353.385 833.21 354.775 833.13C355.475 833.09 356.175 833.04 356.875 833C359.435 832.83 361.975 832.64 364.515 832.42C365.085 832.37 365.655 832.32 366.225 832.27C368.375 832.07 370.525 831.85 372.665 831.61C373.755 831.49 374.845 831.37 375.945 831.24C377.055 831.1 378.165 830.96 379.275 830.81C381.435 830.53 383.595 830.23 385.755 829.9C385.795 829.9 385.825 829.89 385.865 829.88C482.725 815.24 573.695 758.91 626.665 662.89C667.165 589.48 676.445 510.31 661.585 437.3L661.565 437.31ZM156.685 462.81C172.215 397.25 231.665 346.89 298.645 340.55C334.525 337.16 364.805 349.55 395.235 366.93C419.525 326.3 478.375 338.62 483.705 385.9C489.505 437.32 471.875 557.61 491.635 597.26C500.095 614.23 526.565 621.82 521.975 643.21C513.115 684.4 434.485 644.9 417.245 626.64C399.595 637.7 382.365 649.45 362.045 655.56C240.835 691.98 127.465 586.11 156.675 462.82L156.685 462.81Z"/>
    <path d="M331.495 588.09C443.235 575.95 427.495 398.18 307.465 414.6C198.055 429.57 215.645 600.69 331.495 588.09Z" />
  </g>
</svg>
